# xmcd
#
# Track frame offsets: 
#        150
#        9674
#        21987
#        40035
#        56529
#        80954
#        99949
#        119859
#        142953
#        167925
#        185574
#        207526
#
# Disc length: 3060 seconds
#
# Revision: 0
# Processed by: cddbd v1.5.2PL0 Copyright (c) Steve Scherf et al.
# Submitted via: ExactAudioCopy v1.0b2
#
DISCID=ad0bf20c
DTITLE=苏曼 - 佳人曲
DYEAR=2012
DGENRE=A Cappella
TTITLE0=尘封之翼
TTITLE1=佳人曲
TTITLE2=伤情
TTITLE3=旧梦不须记
TTITLE4=情人
TTITLE5=忆相思
TTITLE6=暧昧
TTITLE7=感思的心
TTITLE8=美丽心情
TTITLE9=相思河畔
TTITLE10=当你孤单你会想起谁
TTITLE11=橄榄树
EXTD=
EXTT0=
EXTT1=
EXTT2=
EXTT3=
EXTT4=
EXTT5=
EXTT6=
EXTT7=
EXTT8=
EXTT9=
EXTT10=
EXTT11=
PLAYORDER=
